<svg width="600" height="600" viewBox="0 0 600 600" fill="none" xmlns="http://www.w3.org/2000/svg">
<rect width="600" height="600" rx="150" fill="#184695"/>
<path fill-rule="evenodd" clip-rule="evenodd" d="M271.417 412.352L284.012 424.947C287.347 428.291 289.129 432.911 288.968 437.795C288.806 442.679 286.714 447.428 283.15 451L274.179 459.971C271.237 462.932 267.455 464.891 263.431 465.539L215.774 467.995L208.617 475.152C205.045 478.716 200.297 480.808 195.413 480.969C190.529 481.131 185.908 479.349 182.565 476.014L171.749 465.198L4.42641 632.52L-38 590.094L129.322 422.772L123.786 417.236C120.45 413.893 118.668 409.273 118.83 404.389C118.992 399.505 121.086 394.757 124.652 391.187L131.809 384.03L134.182 337.694C134.162 337.267 134.179 336.846 134.252 336.416C134.922 332.334 136.85 328.6 139.829 325.621L148.8 316.65C152.372 313.086 157.121 310.994 162.005 310.832C166.889 310.671 171.509 312.453 174.853 315.788L187.448 328.383L241.277 274.555C244.848 270.991 249.597 268.899 254.481 268.737C259.365 268.576 263.985 270.358 267.329 273.693L326.107 332.471C329.442 335.815 331.224 340.435 331.063 345.319C330.901 350.203 328.809 354.952 325.245 358.524L271.417 412.352ZM294.995 355.187L254.623 395.558L263.02 403.955L316.849 350.127C319.325 347.651 319.446 343.753 317.136 341.443L258.358 282.664C256.04 280.347 252.15 280.475 249.673 282.952L195.845 336.78L204.242 345.177L244.613 304.806C245.803 303.616 247.386 302.917 249.015 302.863C250.643 302.81 252.184 303.405 253.297 304.518C254.411 305.632 255.006 307.172 254.952 308.801C254.898 310.429 254.2 312.013 253.01 313.202L212.639 353.574L225.234 366.169L265.605 325.798C266.795 324.608 268.378 323.909 270.007 323.856C271.636 323.802 273.176 324.397 274.29 325.511C275.403 326.624 275.998 328.165 275.944 329.793C275.891 331.422 275.192 333.005 274.002 334.195L233.631 374.566L246.226 387.161L286.598 346.79C287.787 345.6 289.371 344.902 290.999 344.848C292.628 344.794 294.168 345.389 295.282 346.503C296.395 347.616 296.991 349.157 296.937 350.785C296.883 352.414 296.184 353.997 294.995 355.187Z" fill="white"/>
<path fill-rule="evenodd" clip-rule="evenodd" d="M478.218 160.728L507.567 190.077C511.736 194.247 511.506 200.027 506.992 204.529L401.81 309.711C397.296 314.225 391.522 314.449 387.359 310.286L290.22 213.147C286.057 208.984 286.287 203.203 290.788 198.702L395.97 93.5198C400.485 89.0053 406.265 88.7755 410.428 92.9386L435.792 118.302L596.093 -42L638.52 0.426411L478.218 160.728ZM434.161 221.853L441.667 214.347C446.175 209.839 446.404 204.058 442.241 199.895L400.61 158.264C396.447 154.101 390.667 154.331 386.159 158.839L378.653 166.345L364.776 152.468L402.341 114.903L485.603 198.165L448.037 235.73L434.161 221.853ZM326.062 218.936L319.123 211.998L341.655 189.465L348.594 196.404L326.062 218.936ZM346.877 239.752L339.939 232.813L362.471 210.281L369.409 217.219L346.877 239.752ZM367.692 260.567L360.754 253.629L383.286 231.096L390.225 238.035L367.692 260.567ZM388.508 281.383L381.569 274.444L404.102 251.912L411.04 258.85L388.508 281.383Z" fill="white"/>
</svg>